<svg id="Calque_1" data-name="Calque 1" xmlns="http://www.w3.org/2000/svg" viewBox="0 0 400 300"><defs><style>.cls-1{fill:#fff;}</style></defs><title>Douche</title><path id="Tracé_74" data-name="Tracé 74" class="cls-1" d="M221.08,161.34c-1.61,3.42-3,6.1-4.16,8.88-.92,2.17-.53,4.47,1.62,5.43a6.85,6.85,0,0,0,5.17,0c2.1-1,2.49-3.27,1.53-5.46C224,167.41,222.69,164.73,221.08,161.34Z"/><path id="Tracé_75" data-name="Tracé 75" class="cls-1" d="M206,161.23c-1.68,3.65-3,6.44-4.25,9.3-.88,2.1-.3,4.25,1.67,5.11a7,7,0,0,0,5.15,0c1.94-.86,2.59-3,1.69-5.11C209,167.68,207.66,164.89,206,161.23Z"/><path id="Tracé_76" data-name="Tracé 76" class="cls-1" d="M213.73,179.36c-1.65,3.48-3.06,6.12-4.17,8.89-.84,2.11-.53,4.47,1.66,5.41a7,7,0,0,0,5.17-.08c2.08-1,2.44-3.32,1.51-5.47C216.73,185.38,215.36,182.74,213.73,179.36Z"/><path id="Tracé_77" data-name="Tracé 77" class="cls-1" d="M228,180.18c-1.31,2.8-3,5.5-3.77,8.45a6.09,6.09,0,0,0,1.85,5c1,.84,3.42.65,4.86,0,2.07-.87,2.54-3.1,1.77-5.14-1.07-2.82-2.48-5.51-3.74-8.26Z"/><path id="Tracé_78" data-name="Tracé 78" class="cls-1" d="M235.77,161.42c-1.65,3.41-3,6-4.13,8.66a4.33,4.33,0,0,0,1.46,5.61,4.56,4.56,0,0,0,6.76-5.74C238.65,167.33,237.37,164.75,235.77,161.42Z"/><path class="cls-1" d="M253.32,149.22A31.73,31.73,0,0,0,225.14,119c-1.53-5.9-2.46-11.84-4.59-17.31-8.52-21.93-30.7-34.63-54-31.35a47.88,47.88,0,0,0-19.14,7.16v5.81a53.11,53.11,0,0,1,8.18-4.61c18.13-8.21,35.17-4.85,49.86,8.71,8.44,7.79,13,17.75,14.09,29.32.17,1.83-.39,2.37-2,2.67-15.53,2.85-25.58,14.13-26.78,29.9-.2,2.54.72,3.62,3.33,3.61q28-.07,56.1,0C252.76,152.91,253.44,151.77,253.32,149.22Zm-5.21-1.13H195.86c-.39-12.58,12.63-24.48,26.5-24.34C235.92,123.89,248.72,135.91,248.11,148.09Z"/></svg>