<svg xmlns="http://www.w3.org/2000/svg" width="293.774" height="200.895" viewBox="0 0 293.774 200.895">
  <g id="Groupe_122" data-name="Groupe 122" transform="translate(-0.01 0)">
    <path id="Tracé_269" data-name="Tracé 269" d="M317.971,106.3c-1.788,7.24-10.964,10.869-16.106,16.27-9.689,10.18-5.915,25.046.231,36.951,2.058,3.987,4.393,8.207,3.521,12.482-1.062,5.229-6.708,9.051-12.636,11.077a44.624,44.624,0,0,1-33.669-2.294c-8.58-4.411-14.727-11.574-23.454-15.8-14.606-7.045-33.2-4.372-49.057.471-11.219,3.434-23.487,7.9-34.637,4.316-7.844-2.526-13.269-8.673-16.224-15.175-1.425-3.145-2.461-6.551-5.185-9.043a19.737,19.737,0,0,0-5.9-3.421c-19.773-8.1-44.752-3.763-63.946-12.749-12.968-6.067-21.273-17.512-24.948-29.449S32.715,75.49,33.649,63.2c.664-8.745,1.854-18.06,8.608-24.8,7.145-7.132,19.405-9.773,30.49-8.428s21.129,6.188,29.968,11.877c11.059,7.114,21.291,15.969,34.853,18.85,9.236,1.962,18.95.887,28.477.514,15.926-.62,31.856.772,47.692,2.274,7.716.738,15.457,1.512,23.106,2.634q2.572.375,5.144.81c.859.147,1.718.3,2.572.455.669.121,1.335.257,2,.378q1.577.306,3.143.643,4.5.964,8.909,2.2c10.221,2.883,18.415,8.12,28.068,11.777,6.291,2.384,13.15,3.043,19.107,6.078C313.117,92.179,319.851,98.689,317.971,106.3Z" transform="translate(-24.506 -22.006)" fill="#004eff" opacity="0.1"/>
    <circle id="Ellipse_66" data-name="Ellipse 66" cx="26.293" cy="26.293" r="26.293" transform="translate(204.574 96.582) rotate(-45)" fill="#6c63ff"/>
    <circle id="Ellipse_67" data-name="Ellipse 67" cx="26.293" cy="26.293" r="26.293" transform="translate(187.502 63.105)" fill="#6c63ff"/>
    <circle id="Ellipse_68" data-name="Ellipse 68" cx="26.293" cy="26.293" r="26.293" transform="translate(156.721 63.363)" fill="#6c63ff"/>
    <circle id="Ellipse_69" data-name="Ellipse 69" cx="26.293" cy="26.293" r="26.293" transform="translate(146.716 70.289)" fill="#6c63ff"/>
    <circle id="Ellipse_70" data-name="Ellipse 70" cx="26.293" cy="26.293" r="26.293" transform="translate(129.785 72.599)" fill="#6c63ff"/>
    <circle id="Ellipse_71" data-name="Ellipse 71" cx="26.293" cy="26.293" r="26.293" transform="translate(122.859 51.82)" fill="#6c63ff"/>
    <circle id="Ellipse_72" data-name="Ellipse 72" cx="26.293" cy="26.293" r="26.293" transform="translate(130.554 27.705)" fill="#6c63ff"/>
    <circle id="Ellipse_73" data-name="Ellipse 73" cx="26.293" cy="26.293" r="26.293" transform="translate(145.176 27.705)" fill="#6c63ff"/>
    <circle id="Ellipse_74" data-name="Ellipse 74" cx="26.293" cy="26.293" r="26.293" transform="translate(153.643 16.931)" fill="#6c63ff"/>
    <circle id="Ellipse_75" data-name="Ellipse 75" cx="26.293" cy="26.293" r="26.293" transform="translate(175.191 28.731)" fill="#6c63ff"/>
    <circle id="Ellipse_76" data-name="Ellipse 76" cx="26.293" cy="26.293" r="26.293" transform="translate(225.47 51.82)" fill="#6c63ff"/>
    <circle id="Ellipse_77" data-name="Ellipse 77" cx="26.293" cy="26.293" r="26.293" transform="translate(210.334 38.736)" fill="#6c63ff"/>
    <circle id="Ellipse_78" data-name="Ellipse 78" cx="26.293" cy="26.293" r="26.293" transform="translate(200.586 25.653)" fill="#6c63ff"/>
    <circle id="Ellipse_79" data-name="Ellipse 79" cx="26.293" cy="26.293" r="26.293" transform="translate(182.117 5.9)" fill="#6c63ff"/>
    <circle id="Ellipse_80" data-name="Ellipse 80" cx="26.293" cy="26.293" r="26.293" transform="translate(205.6 53.998) rotate(-45)" fill="#6c63ff"/>
    <g id="Groupe_119" data-name="Groupe 119" transform="translate(122.859 5.9)" opacity="0.1">
      <circle id="Ellipse_81" data-name="Ellipse 81" cx="26.293" cy="26.293" r="26.293" transform="translate(81.715 90.682) rotate(-45)" fill="#004eff"/>
      <circle id="Ellipse_82" data-name="Ellipse 82" cx="26.293" cy="26.293" r="26.293" transform="translate(64.643 57.205)" fill="#004eff"/>
      <circle id="Ellipse_83" data-name="Ellipse 83" cx="26.293" cy="26.293" r="26.293" transform="translate(33.862 57.463)" fill="#004eff"/>
      <circle id="Ellipse_84" data-name="Ellipse 84" cx="26.293" cy="26.293" r="26.293" transform="translate(23.857 64.389)" fill="#004eff"/>
      <circle id="Ellipse_85" data-name="Ellipse 85" cx="26.293" cy="26.293" r="26.293" transform="translate(6.926 66.698)" fill="#004eff"/>
      <circle id="Ellipse_86" data-name="Ellipse 86" cx="26.293" cy="26.293" r="26.293" transform="translate(0 45.92)" fill="#004eff"/>
      <circle id="Ellipse_87" data-name="Ellipse 87" cx="26.293" cy="26.293" r="26.293" transform="translate(7.695 21.805)" fill="#004eff"/>
      <circle id="Ellipse_88" data-name="Ellipse 88" cx="26.293" cy="26.293" r="26.293" transform="translate(22.317 21.805)" fill="#004eff"/>
      <circle id="Ellipse_89" data-name="Ellipse 89" cx="26.293" cy="26.293" r="26.293" transform="translate(30.784 11.031)" fill="#004eff"/>
      <circle id="Ellipse_90" data-name="Ellipse 90" cx="26.293" cy="26.293" r="26.293" transform="translate(52.332 22.831)" fill="#004eff"/>
      <circle id="Ellipse_91" data-name="Ellipse 91" cx="26.293" cy="26.293" r="26.293" transform="translate(102.611 45.92)" fill="#004eff"/>
      <circle id="Ellipse_92" data-name="Ellipse 92" cx="26.293" cy="26.293" r="26.293" transform="translate(87.475 32.836)" fill="#004eff"/>
      <circle id="Ellipse_93" data-name="Ellipse 93" cx="26.293" cy="26.293" r="26.293" transform="translate(77.727 19.753)" fill="#004eff"/>
      <circle id="Ellipse_94" data-name="Ellipse 94" cx="26.293" cy="26.293" r="26.293" transform="translate(59.258)" fill="#004eff"/>
      <circle id="Ellipse_95" data-name="Ellipse 95" cx="26.293" cy="26.293" r="26.293" transform="translate(82.741 48.098) rotate(-45)" fill="#004eff"/>
    </g>
    <path id="Tracé_270" data-name="Tracé 270" d="M865.029,451.487s16.075-13.51,8.122-32.749L865.2,415.76l-8.629,26.566Z" transform="translate(-636.257 -308.829)" fill="#67647e"/>
    <path id="Tracé_271" data-name="Tracé 271" d="M867.861,412.2l1.9.712-8.472,26.082,7.392,8c-.612.609-.993.928-.993.928l-8.462-9.161Z" transform="translate(-638.233 -306.184)" opacity="0.1"/>
    <ellipse id="Ellipse_96" data-name="Ellipse 96" cx="143.129" cy="23.96" rx="143.129" ry="23.96" transform="translate(5.923 152.975)" fill="#004eff" opacity="0.1"/>
    <path id="Tracé_272" data-name="Tracé 272" d="M986.655,543.65a12.485,12.485,0,0,0-2.276,12.988c2.953,7.76-5.059,20.66-5.059,20.66l.257-.041a15.223,15.223,0,0,0,10.1-23.3C987.447,550.569,985.624,546.587,986.655,543.65Z" transform="translate(-727.436 -403.826)" fill="#004eff"/>
    <path id="Tracé_273" data-name="Tracé 273" d="M986.648,543.65s-2.953,6.409,0,11.638.514,19.9-7.338,22.011" transform="translate(-727.429 -403.826)" fill="none" stroke="#535461" stroke-miterlimit="10" stroke-width="1"/>
    <path id="Tracé_274" data-name="Tracé 274" d="M992.106,625.692s-5.967-.949-6.51,4.4-11.476,6.088-11.476,6.088l.206.136c9.025,5.916,17.651,3.773,16.35-4.092C990.195,629.3,990.233,626.361,992.106,625.692Z" transform="translate(-723.574 -464.719)" fill="#6c63ff"/>
    <path id="Tracé_275" data-name="Tracé 275" d="M992.106,625.692s-5.967-.949-6.51,4.4-11.476,6.088-11.476,6.088l.206.136c9.025,5.916,17.651,3.773,16.35-4.092C990.195,629.3,990.233,626.361,992.106,625.692Z" transform="translate(-723.574 -464.719)" fill="#004eff" opacity="0.2"/>
    <path id="Tracé_276" data-name="Tracé 276" d="M992.113,625.88s-4.63,1.029-4.251,5.229-6.877,9.259-13.732,5.257" transform="translate(-723.581 -464.907)" fill="none" stroke="#535461" stroke-miterlimit="10" stroke-width="1"/>
    <path id="Tracé_277" data-name="Tracé 277" d="M607.2,374.062l2.088,8.359s14.755,1.924,24.593.715a12.784,12.784,0,0,0,4.9-1.77c.831-.491,2.143-.7,3.935.638,3.071,2.315,18.143,20.833,15.7,40.045a6.641,6.641,0,0,1-5.7,5.72h0a20.023,20.023,0,0,0-8.4,3.179l-7.459,4.966,76.477-1.672-7.94-9.611s-5.432-4.6-9.611-5.015c-1.219-.121-2.225-1.24-3.037-2.76a182.1,182.1,0,0,0-16.628-25.293c-4.5-5.828-8.269-11.97-7.917-15.828.836-9.195,0-24.238,0-24.238l-15.879-2.088s2.089,20.061-17.134,25.074S607.2,374.062,607.2,374.062Z" transform="translate(-451.024 -259.543)" fill="#67647e"/>
    <g id="Groupe_120" data-name="Groupe 120" transform="translate(156.174 89.872)" opacity="0.1">
      <path id="Tracé_278" data-name="Tracé 278" d="M620.148,377.84s8.776,5.432,28,.417,17.134-25.074,17.134-25.074l3.022.394c-.057-1.286-.1-2.058-.1-2.058l-15.879-2.088s2.088,20.061-17.134,25.074-28-.417-28-.417l2.088,8.359s5.638.736,12.268,1.011Z" transform="translate(-607.19 -349.43)"/>
      <path id="Tracé_279" data-name="Tracé 279" d="M742.941,536.77a20.028,20.028,0,0,1,8.4-3.179h0a6.631,6.631,0,0,0,5.7-5.7c2.454-19.213-12.626-37.764-15.689-40.068-3.344-2.508-5.015.417-5.015.417a26.928,26.928,0,0,1-3.6.687c5.417,7.2,13.166,21.015,11.353,35.2a6.631,6.631,0,0,1-5.7,5.7h0a20.028,20.028,0,0,0-8.4,3.179l-7.459,4.967,19.228-.419Z" transform="translate(-692.865 -451.477)"/>
    </g>
    <path id="Tracé_280" data-name="Tracé 280" d="M655.143,552.919s-1.6-5.422.3-9.413a8.565,8.565,0,0,0,.692-5.373,14.4,14.4,0,0,0-.772-2.523" transform="translate(-486.169 -397.854)" fill="none" stroke="#535461" stroke-miterlimit="10" stroke-width="2"/>
    <path id="Tracé_281" data-name="Tracé 281" d="M655.52,522.318a9.559,9.559,0,0,1-1.2,2.592,9.586,9.586,0,0,1-1.2-2.592,1.2,1.2,0,0,1,2.407,0v0Z" transform="translate(-485.134 -387.085)" fill="#004eff"/>
    <path id="Tracé_282" data-name="Tracé 282" d="M663.208,534.663a9.517,9.517,0,0,1-2.418,1.523,9.575,9.575,0,0,1,.4-2.829,1.2,1.2,0,0,1,2.058,1.248c-.013.021-.026.041-.039.061Z" transform="translate(-490.831 -395.749)" fill="#004eff"/>
    <path id="Tracé_283" data-name="Tracé 283" d="M661.6,557.975a9.56,9.56,0,0,1-2.855.093,9.494,9.494,0,0,1,1.772-2.24,1.2,1.2,0,0,1,1.083,2.15Z" transform="translate(-489.316 -412.776)" fill="#004eff"/>
    <path id="Tracé_284" data-name="Tracé 284" d="M657.348,576.835a9.5,9.5,0,0,1-2.8.574,9.488,9.488,0,0,1,1.368-2.508,1.2,1.2,0,0,1,1.43,1.934Z" transform="translate(-486.196 -426.884)" fill="#004eff"/>
    <path id="Tracé_285" data-name="Tracé 285" d="M649.956,540.652a9.545,9.545,0,0,0,2.7.944,9.318,9.318,0,0,0-1.029-2.67,1.2,1.2,0,0,0-1.677,1.726Z" transform="translate(-482.525 -400.082)" fill="#004eff"/>
    <path id="Tracé_286" data-name="Tracé 286" d="M644.146,561.6a9.562,9.562,0,0,0,2.855.093,9.5,9.5,0,0,0-1.772-2.24,1.2,1.2,0,0,0-1.083,2.15h0Z" transform="translate(-477.975 -415.464)" fill="#004eff"/>
    <path id="Tracé_287" data-name="Tracé 287" d="M642.882,583.674a9.5,9.5,0,0,0,2.8.574,9.491,9.491,0,0,0-1.368-2.508,1.2,1.2,0,0,0-1.43,1.934Z" transform="translate(-477.195 -431.965)" fill="#004eff"/>
    <path id="Tracé_288" data-name="Tracé 288" d="M643.45,592.567s2.919-.584,3.7-1.363,4.28-2.14,4.671-1.168,5.255,4.28,1.944,4.863-7.783.772-8.745.388S643.45,592.567,643.45,592.567Z" transform="translate(-477.951 -438.031)" fill="#a8a8a8"/>
    <path id="Tracé_289" data-name="Tracé 289" d="M653.8,602.793c-3.308.584-7.783.772-8.745.388-.741-.3-1.255-1.721-1.458-2.382l-.1.021s.584,2.335,1.556,2.724,5.447.2,8.745-.388c.954-.17,1.227-.563,1.124-1.065C654.842,602.41,654.51,602.662,653.8,602.793Z" transform="translate(-477.988 -446.277)" opacity="0.2"/>
    <path id="Tracé_290" data-name="Tracé 290" d="M831.62,646.886s8.855-1.772,11.219-4.133,12.988-6.494,14.169-3.542,15.946,12.988,5.915,14.76-23.616,2.361-26.568,1.181S831.62,646.886,831.62,646.886Z" transform="translate(-617.724 -474.048)" fill="#a8a8a8"/>
    <path id="Tracé_291" data-name="Tracé 291" d="M862.913,677.819c-10.031,1.772-23.616,2.361-26.568,1.181-2.248-.9-3.812-5.221-4.429-7.23l-.3.062s1.772,7.086,4.722,8.266,16.532.591,26.568-1.181c2.9-.514,3.727-1.713,3.413-3.23C866.079,676.677,865.068,677.441,862.913,677.819Z" transform="translate(-617.724 -498.994)" opacity="0.2"/>
    <path id="Tracé_292" data-name="Tracé 292" d="M1059.1,467.815a1.635,1.635,0,1,1-1.924.005c0-1.633.422-2.958.954-2.96S1059.1,466.182,1059.1,467.815Z" transform="translate(-785.271 -345.3)" fill="#004eff"/>
    <path id="Tracé_293" data-name="Tracé 293" d="M776.814,462.228a5.611,5.611,0,0,1-.962,2.958,5.611,5.611,0,0,1-.962-2.958c0-1.633.43-2.958.962-2.958S776.814,460.595,776.814,462.228Z" transform="translate(-575.585 -341.148)" fill="#004eff"/>
    <path id="Tracé_294" data-name="Tracé 294" d="M1082.277,578.625a1.635,1.635,0,1,1-1.556,1.132c-.962-1.322-1.391-2.646-.962-2.958S1081.318,577.306,1082.277,578.625Z" transform="translate(-801.919 -428.4)" fill="#004eff"/>
    <path id="Tracé_295" data-name="Tracé 295" d="M965.014,515.338a1.635,1.635,0,1,1-1.924,0c0-1.633.43-2.958.962-2.958S965.014,513.71,965.014,515.338Z" transform="translate(-715.381 -380.598)" fill="#004eff"/>
    <path id="Tracé_296" data-name="Tracé 296" d="M895.134,477.138a5.612,5.612,0,0,1-.962,2.958,5.611,5.611,0,0,1-.962-2.958c0-1.633.43-2.958.962-2.958S895.134,475.5,895.134,477.138Z" transform="translate(-663.473 -352.223)" fill="#004eff"/>
    <path id="Tracé_297" data-name="Tracé 297" d="M850.017,502.809a1.638,1.638,0,1,1-1.68.957c-.813-1.417-1.1-2.78-.635-3.045S849.207,501.392,850.017,502.809Z" transform="translate(-629.506 -371.904)" fill="#004eff"/>
    <path id="Tracé_298" data-name="Tracé 298" d="M816.816,606.4A5.614,5.614,0,0,1,814,607.725,5.611,5.611,0,0,1,815.5,605c1.191-1.116,2.454-1.708,2.816-1.322S818.007,605.287,816.816,606.4Z" transform="translate(-604.636 -448.328)" fill="#6c63ff"/>
    <path id="Tracé_299" data-name="Tracé 299" d="M816.816,606.4A5.614,5.614,0,0,1,814,607.725,5.611,5.611,0,0,1,815.5,605c1.191-1.116,2.454-1.708,2.816-1.322S818.007,605.287,816.816,606.4Z" transform="translate(-604.636 -448.328)" fill="#004eff" opacity="0.1"/>
    <path id="Tracé_300" data-name="Tracé 300" d="M884.826,599.883a5.613,5.613,0,0,1-2.816,1.322,5.609,5.609,0,0,1,1.5-2.724c1.191-1.116,2.454-1.708,2.816-1.322S886.017,598.764,884.826,599.883Z" transform="translate(-655.154 -443.485)" fill="#6c63ff"/>
    <path id="Tracé_301" data-name="Tracé 301" d="M884.826,599.883a5.613,5.613,0,0,1-2.816,1.322,5.609,5.609,0,0,1,1.5-2.724c1.191-1.116,2.454-1.708,2.816-1.322S886.017,598.764,884.826,599.883Z" transform="translate(-655.154 -443.485)" opacity="0.1"/>
    <path id="Tracé_302" data-name="Tracé 302" d="M897.866,668.8a5.614,5.614,0,0,1-2.816,1.322,5.614,5.614,0,0,1,1.5-2.731c1.191-1.116,2.454-1.708,2.816-1.322S899.06,667.682,897.866,668.8Z" transform="translate(-664.84 -494.672)" fill="#6c63ff"/>
    <path id="Tracé_303" data-name="Tracé 303" d="M897.866,668.8a5.614,5.614,0,0,1-2.816,1.322,5.614,5.614,0,0,1,1.5-2.731c1.191-1.116,2.454-1.708,2.816-1.322S899.06,667.682,897.866,668.8Z" transform="translate(-664.84 -494.672)" fill="#004eff" opacity="0.1"/>
    <path id="Tracé_304" data-name="Tracé 304" d="M23.276,550.679c3.943,5.82,2.685,26.658,2.685,26.658S6.144,570.776,2.2,564.958a12.729,12.729,0,1,1,21.077-14.277Z" transform="translate(0 -404.895)" fill="#6c63ff"/>
    <path id="Tracé_305" data-name="Tracé 305" d="M23.276,550.679c3.943,5.82,2.685,26.658,2.685,26.658S6.144,570.776,2.2,564.958a12.729,12.729,0,1,1,21.077-14.277Z" transform="translate(0 -404.895)" fill="#004eff" opacity="0.1"/>
    <path id="Tracé_306" data-name="Tracé 306" d="M22.04,553.66S36.89,565.126,42.4,583.724" transform="translate(-16.364 -411.261)" fill="none" stroke="#535461" stroke-miterlimit="10" stroke-width="1"/>
    <path id="Tracé_307" data-name="Tracé 307" d="M98.826,608.968s-10.545-1.8-3.344,15.666c0,0,7.327-2.793,7.9-9.742A5.545,5.545,0,0,0,98.97,609Z" transform="translate(-69.049 -452.305)" fill="#004eff"/>
    <path id="Tracé_308" data-name="Tracé 308" d="M106.278,609.05s2.009,9.66-3.488,15.689" transform="translate(-76.346 -452.405)" fill="none" stroke="#535461" stroke-miterlimit="10" stroke-width="1"/>
    <path id="Tracé_309" data-name="Tracé 309" d="M1008.63,659.741s4.4-.875,5.573-2.04,6.456-3.2,7.042-1.749,7.922,6.409,2.935,7.281-11.736,1.165-13.2.584S1008.63,659.741,1008.63,659.741Z" transform="translate(-749.208 -486.869)" fill="#a8a8a8"/>
    <path id="Tracé_310" data-name="Tracé 310" d="M1024.21,675.013c-4.987.875-11.736,1.165-13.2.584-1.116-.445-1.893-2.572-2.2-3.567l-.147.031s.88,3.5,2.348,4.079,8.215.291,13.2-.584c1.44-.257,1.852-.844,1.7-1.595C1025.776,674.448,1025.275,674.826,1024.21,675.013Z" transform="translate(-749.23 -499.187)" opacity="0.2"/>
    <circle id="Ellipse_97" data-name="Ellipse 97" cx="26.293" cy="26.293" r="26.293" transform="translate(204.574 90.682) rotate(-45)" fill="#004eff"/>
    <circle id="Ellipse_98" data-name="Ellipse 98" cx="26.293" cy="26.293" r="26.293" transform="translate(187.502 57.205)" fill="#004eff"/>
    <circle id="Ellipse_99" data-name="Ellipse 99" cx="26.293" cy="26.293" r="26.293" transform="translate(156.721 57.463)" fill="#004eff"/>
    <circle id="Ellipse_100" data-name="Ellipse 100" cx="26.293" cy="26.293" r="26.293" transform="translate(146.716 64.389)" fill="#004eff"/>
    <circle id="Ellipse_101" data-name="Ellipse 101" cx="26.293" cy="26.293" r="26.293" transform="translate(129.785 66.698)" fill="#004eff"/>
    <circle id="Ellipse_102" data-name="Ellipse 102" cx="26.293" cy="26.293" r="26.293" transform="translate(122.859 45.92)" fill="#004eff"/>
    <circle id="Ellipse_103" data-name="Ellipse 103" cx="26.293" cy="26.293" r="26.293" transform="translate(130.554 21.805)" fill="#004eff"/>
    <circle id="Ellipse_104" data-name="Ellipse 104" cx="26.293" cy="26.293" r="26.293" transform="translate(145.176 21.805)" fill="#004eff"/>
    <circle id="Ellipse_105" data-name="Ellipse 105" cx="26.293" cy="26.293" r="26.293" transform="translate(153.643 11.031)" fill="#004eff"/>
    <circle id="Ellipse_106" data-name="Ellipse 106" cx="26.293" cy="26.293" r="26.293" transform="translate(175.191 22.831)" fill="#004eff"/>
    <circle id="Ellipse_107" data-name="Ellipse 107" cx="26.293" cy="26.293" r="26.293" transform="translate(225.47 45.92)" fill="#004eff"/>
    <circle id="Ellipse_108" data-name="Ellipse 108" cx="26.293" cy="26.293" r="26.293" transform="translate(210.334 32.836)" fill="#004eff"/>
    <circle id="Ellipse_109" data-name="Ellipse 109" cx="26.293" cy="26.293" r="26.293" transform="translate(200.586 19.753)" fill="#004eff"/>
    <circle id="Ellipse_110" data-name="Ellipse 110" cx="26.293" cy="26.293" r="26.293" transform="translate(182.117 0)" fill="#004eff"/>
    <circle id="Ellipse_111" data-name="Ellipse 111" cx="26.293" cy="26.293" r="26.293" transform="translate(205.6 48.098) rotate(-45)" fill="#004eff"/>
    <path id="Tracé_311" data-name="Tracé 311" d="M928.215,193.593s-24.488-11.612-39.3,8.968" transform="translate(-660.279 -141.377)" opacity="0.1"/>
    <path id="Tracé_312" data-name="Tracé 312" d="M698.057,111.541s-27.088-.818-32.407,23.976" transform="translate(-494.441 -82.851)" opacity="0.1"/>
    <path id="Tracé_313" data-name="Tracé 313" d="M547.215,311.277s-24.487-11.615-39.3,8.961" transform="translate(-377.271 -228.792)" opacity="0.1"/>
    <path id="Tracé_314" data-name="Tracé 314" d="M588.8,575.55s1.412,1.847-.653,4.63-3.768,5.144-3.086,6.883c0,0,3.115-5.18,5.658-5.252S591.587,578.665,588.8,575.55Z" transform="translate(-434.464 -427.521)" fill="#004eff"/>
    <path id="Tracé_315" data-name="Tracé 315" d="M589.047,575.55a2.285,2.285,0,0,1,.288.579c2.474,2.906,3.794,5.62,1.415,5.689-2.214.064-4.874,4.025-5.509,5.026a2.145,2.145,0,0,0,.075.229s3.115-5.18,5.658-5.252S591.835,578.665,589.047,575.55Z" transform="translate(-434.712 -427.521)" opacity="0.1"/>
    <path id="Tracé_316" data-name="Tracé 316" d="M609.314,583.493c0,.651-.072,1.178-.162,1.178s-.162-.514-.162-1.178.09-.345.18-.345S609.314,582.843,609.314,583.493Z" transform="translate(-452.354 -433.109)" fill="#ffd037"/>
    <path id="Tracé_317" data-name="Tracé 317" d="M610.533,586.428c-.571.311-1.07.5-1.111.419s.386-.4.957-.707.345-.085.388,0S611.1,586.128,610.533,586.428Z" transform="translate(-452.673 -435.27)" fill="#ffd037"/>
    <path id="Tracé_318" data-name="Tracé 318" d="M561.855,575.55s-1.412,1.847.653,4.63,3.768,5.144,3.086,6.883c0,0-3.115-5.18-5.658-5.252S559.065,578.665,561.855,575.55Z" transform="translate(-414.984 -427.521)" fill="#004eff"/>
    <path id="Tracé_319" data-name="Tracé 319" d="M561.839,575.55a2.285,2.285,0,0,0-.288.579c-2.474,2.906-3.794,5.62-1.415,5.689,2.215.064,4.874,4.025,5.509,5.026a2.216,2.216,0,0,1-.075.229s-3.115-5.18-5.658-5.252S559.048,578.665,561.839,575.55Z" transform="translate(-414.968 -427.521)" opacity="0.1"/>
    <path id="Tracé_320" data-name="Tracé 320" d="M560.81,583.493c0,.651.072,1.178.162,1.178s.162-.514.162-1.178-.09-.345-.18-.345S560.81,582.843,560.81,583.493Z" transform="translate(-416.565 -433.109)" fill="#ffd037"/>
    <path id="Tracé_321" data-name="Tracé 321" d="M556.306,586.428c.571.311,1.07.5,1.111.419s-.386-.4-.957-.707-.345-.085-.388,0S555.746,586.128,556.306,586.428Z" transform="translate(-412.964 -435.27)" fill="#ffd037"/>
    <path id="Tracé_322" data-name="Tracé 322" d="M562.56,613.234s3.951-.121,5.144-.97,6.078-1.86,6.371-.5,5.936,6.762,1.476,6.8-10.362-.694-11.551-1.42S562.56,613.234,562.56,613.234Z" transform="translate(-417.865 -453.927)" fill="#a8a8a8"/>
    <path id="Tracé_323" data-name="Tracé 323" d="M575.628,624.241c-4.46.036-10.362-.694-11.551-1.42-.905-.55-1.266-2.528-1.386-3.441h-.131s.257,3.187,1.438,3.909,7.091,1.456,11.551,1.42c1.286,0,1.731-.468,1.708-1.147C577.079,623.976,576.593,624.233,575.628,624.241Z" transform="translate(-417.865 -460.078)" opacity="0.2"/>
    <path id="Tracé_324" data-name="Tracé 324" d="M91.925,704.533a3,3,0,0,0,.985-1.487,1.32,1.32,0,0,0-.689-1.515,1.931,1.931,0,0,0-1.821.64,2.422,2.422,0,0,1-1.772.854,2.7,2.7,0,0,0,.833-2.523,1.055,1.055,0,0,0-.231-.514c-.352-.375-.988-.214-1.409.082-1.337.941-1.71,2.757-1.718,4.393a8.421,8.421,0,0,1-.026-1.8,1.859,1.859,0,0,0-.679-1.6,2.058,2.058,0,0,0-1.029-.244,2.142,2.142,0,0,0-1.682.478,1.654,1.654,0,0,0,.067,2.058,6.694,6.694,0,0,0,1.741,1.394,3.856,3.856,0,0,1,1.245,1.186,1.168,1.168,0,0,1,.093.211H89.6A10.516,10.516,0,0,0,91.925,704.533Z" transform="translate(-61.167 -519.792)" fill="#004eff"/>
    <path id="Tracé_325" data-name="Tracé 325" d="M1001.925,718.533a3,3,0,0,0,.985-1.487,1.319,1.319,0,0,0-.689-1.515,1.931,1.931,0,0,0-1.821.64,2.422,2.422,0,0,1-1.772.854,2.694,2.694,0,0,0,.833-2.523,1.054,1.054,0,0,0-.231-.514c-.352-.375-.988-.213-1.409.082-1.337.941-1.71,2.757-1.718,4.393a8.433,8.433,0,0,1-.026-1.8,1.859,1.859,0,0,0-.679-1.6,2.055,2.055,0,0,0-1.029-.244,2.142,2.142,0,0,0-1.682.478,1.654,1.654,0,0,0,.067,2.058,6.7,6.7,0,0,0,1.741,1.394,3.858,3.858,0,0,1,1.245,1.186,1.174,1.174,0,0,1,.093.211H999.6A10.5,10.5,0,0,0,1001.925,718.533Z" transform="translate(-737.12 -530.192)" fill="#004eff"/>
    <path id="Tracé_326" data-name="Tracé 326" d="M589.206,714.826l.219-.015a4.706,4.706,0,0,0,1.111,4.953,7.593,7.593,0,0,0,5.368,2.544l6.25.293-.2.411-6.451-.3a7.593,7.593,0,0,1-5.368-2.544C587.662,717.344,589.206,714.826,589.206,714.826Z" transform="translate(-437.304 -530.964)" fill="#fff" opacity="0.2"/>
    <path id="Tracé_327" data-name="Tracé 327" d="M678.532,737.24q-.028.121-.064.239C678.337,737.4,678.149,737.261,678.532,737.24Z" transform="translate(-503.841 -547.625)" fill="lime" opacity="0.05"/>
    <path id="Tracé_328" data-name="Tracé 328" d="M635.57,745.128c1.376.625,11.721-1.2,13.117-1.448a1.047,1.047,0,0,0,.16.373s-11.81,2.148-13.287,1.476c-.772-.345-.949-.8-.846-1.209A1.365,1.365,0,0,0,635.57,745.128Z" transform="translate(-471.441 -552.409)" fill="#fff" opacity="0.2"/>
  </g>
</svg>
