<svg xmlns="http://www.w3.org/2000/svg" width="31.148" height="31.148" viewBox="0 0 31.148 31.148">
  <path id="Tracé_330" data-name="Tracé 330" d="M193.892,83.158a7.955,7.955,0,1,1,7.946,7.964,7.964,7.964,0,0,1-7.946-7.964ZM210.06,67.592H193.634a7.381,7.381,0,0,0-7.361,7.362V91.379a7.392,7.392,0,0,0,7.361,7.361H210.06a7.381,7.381,0,0,0,7.361-7.361V74.954a7.37,7.37,0,0,0-7.361-7.362Zm-16.426,1.84H210.06a5.527,5.527,0,0,1,5.521,5.521V91.379A5.527,5.527,0,0,1,210.06,96.9H193.634a5.527,5.527,0,0,1-5.521-5.521V74.954a5.527,5.527,0,0,1,5.521-5.521Zm18.059,2.322a1.617,1.617,0,1,0,1.617,1.617,1.615,1.615,0,0,0-1.617-1.617Zm.189,11.4A10.045,10.045,0,1,0,201.838,93.2a10.045,10.045,0,0,0,10.045-10.044Z" transform="translate(-186.273 -67.592)" fill="#004eff" fill-rule="evenodd"/>
</svg>
